# xmcd
#
# Track frame offsets:
#	150
#	17670
#	34072
#	52082
#	66215
#	82205
#	102120
#	116032
#	130602
#	142332
#	162025
#	181182
#	200145
#	219315
#	238002
#
# Disc length: 3399 seconds
#
# Revision: 1
# Processed by: cddbd v1.5.1PL2 Copyright (c) Steve Scherf et al.
# Submitted via: audiograbber 1.83.01
#
DISCID=da0d450f
DTITLE=Music Maestro - MM6220
DYEAR=1900
DGENRE=Karaoke
TTITLE0=Twain, Shania - Love Gets Me Every Time
TTITLE1=Tillis, Pam - Land Of The Living
TTITLE2=Lawrence, Tracy - Coast Is Clear, The
TTITLE3=Strait, George - Today My World Slipped Away
TTITLE4=Herndon, Ty - I Have To Surrender
TTITLE5=Anderson, John - Small Town
TTITLE6=Byrd, Tracy - Good Ol' Fashoned Love
TTITLE7=Trevino, Rick - See Rock City
TTITLE8=Allan, Gary - Livin' In A House Full Of Love
TTITLE9=McEntire, Reba - What If It's You
TTITLE10=Mattea, Kathy - Love Travels
TTITLE11=Lonestar - You Walked In
TTITLE12=Little Texas - Call, The
TTITLE13=Austin, Sherrie - One Solitary Tear
TTITLE14=Peterson, Michael - From Here To Eternity
EXTD=As Listed In KJ Pro
EXTT0=
EXTT1=
EXTT2=
EXTT3=
EXTT4=
EXTT5=
EXTT6=
EXTT7=
EXTT8=
EXTT9=
EXTT10=
EXTT11=
EXTT12=
EXTT13=
EXTT14=
PLAYORDER=
